<svg width="80" height="80" viewBox="0 0 80 80" fill="none" xmlns="http://www.w3.org/2000/svg">
<path d="M0 40C0 17.9086 17.9086 0 40 0C62.0914 0 80 17.9086 80 40C80 62.0914 62.0914 80 40 80C17.9086 80 0 62.0914 0 40Z" fill="#FAFAFA"/>
<path d="M16 36.2119C16 34.8031 16.5943 33.4598 17.6366 32.5121L29.8093 21.4461C31.335 20.0591 33.665 20.0591 35.1907 21.4461L47.3634 32.5122C48.4057 33.4598 49 34.8031 49 36.2119V54H20C17.7909 54 16 52.2091 16 50V36.2119Z" fill="#404040"/>
<circle cx="59" cy="44" r="8" fill="#404040"/>
<circle cx="39" cy="44" r="6.5" stroke="#FAFAFA" stroke-width="3"/>
</svg>
