<svg width="80" height="80" viewBox="0 0 80 80" fill="none" xmlns="http://www.w3.org/2000/svg">
<path d="M0 40C0 17.9086 17.9086 0 40 0C62.0914 0 80 17.9086 80 40C80 62.0914 62.0914 80 40 80C17.9086 80 0 62.0914 0 40Z" fill="#FAFAFA"/>
<path d="M57 55C57 59.4183 53.4183 63 49 63C44.5817 63 41 59.4183 41 55C41 50.5817 44.5817 47 49 47C53.4183 47 57 50.5817 57 55Z" fill="#404040"/>
<path d="M71 45.5C71 49.0899 68.0899 52 64.5 52C60.9101 52 58 49.0899 58 45.5C58 41.9101 60.9101 39 64.5 39C68.0899 39 71 41.9101 71 45.5Z" stroke="#404040" stroke-width="3" stroke-linecap="round" stroke-dasharray="0.2 5"/>
<path d="M22 45.5C22 49.0899 19.0899 52 15.5 52C11.9101 52 9 49.0899 9 45.5C9 41.9101 11.9101 39 15.5 39C19.0899 39 22 41.9101 22 45.5Z" stroke="#404040" stroke-width="3" stroke-dasharray="3 3"/>
<path d="M40 27.5C43.5899 27.5 46.5 30.4101 46.5 34C46.5 37.5899 43.5899 40.5 40 40.5C36.4101 40.5 33.5 37.5899 33.5 34C33.5 30.4101 36.4101 27.5 40 27.5Z" stroke="#404040" stroke-width="3"/>
<path d="M43 34C43 35.6569 41.6569 37 40 37C38.3431 37 37 35.6569 37 34C37 32.3431 38.3431 31 40 31C41.6569 31 43 32.3431 43 34Z" fill="#404040"/>
<path d="M31 48.5C34.5899 48.5 37.5 51.4101 37.5 55C37.5 58.5899 34.5899 61.5 31 61.5C27.4101 61.5 24.5 58.5899 24.5 55C24.5 51.4101 27.4101 48.5 31 48.5Z" stroke="#404040" stroke-width="3"/>
<path d="M28 34H19C16.7909 34 15 32.2091 15 30V24" stroke="#404040" stroke-width="3" stroke-linecap="round"/>
<path d="M52 34H65H70.5" stroke="#404040" stroke-width="3" stroke-linecap="round"/>
</svg>
