<svg width="160" height="76" viewBox="0 0 160 76" fill="none" xmlns="http://www.w3.org/2000/svg">
<g clip-path="url(#clip0_1165_1255)">
<path d="M38.0001 7.95453C54.5691 7.95453 68.0449 21.4303 68.0449 37.9994C68.0449 54.5684 54.5691 68.0442 38.0001 68.0442C21.431 68.0442 7.95524 54.5618 7.95524 37.9994C7.95524 21.437 21.431 7.95453 38.0001 7.95453ZM38.0001 0C17.0098 0 0.000701904 17.0091 0.000701904 37.9994C0.000701904 58.9897 17.0098 75.9987 38.0001 75.9987C58.9904 75.9987 75.9994 58.9897 75.9994 37.9994C75.9928 17.0091 58.9837 0 38.0001 0Z" fill="#FAFAFA"/>
<path d="M121.999 75.9987C142.985 75.9987 159.998 58.9858 159.998 37.9994C159.998 17.0129 142.985 0 121.999 0C101.012 0 83.9993 17.0129 83.9993 37.9994C83.9993 58.9858 101.012 75.9987 121.999 75.9987Z" fill="#FAFAFA"/>
</g>
<defs>
<clipPath id="clip0_1165_1255">
<rect width="159.999" height="75.9987" fill="white"/>
</clipPath>
</defs>
</svg>
